<svg width="580" height="90" viewBox="0 0 580 90" fill="none" xmlns="http://www.w3.org/2000/svg">
<path d="M13.25 88V27.1875L40.1875 82H49.5625L76.5 27.1875V88H89.75V3.125H74.25L44.875 63.5L15.5625 3.125H0V88H13.25ZM122.625 28H110.25V88H122.625V28ZM110.938 13.375C112.375 14.8125 114.188 15.5 116.438 15.5C118.688 15.5 120.562 14.8125 122 13.375C123.438 11.9375 124.125 10.125 124.125 7.875C124.125 5.625 123.438 3.8125 122 2.375C120.562 0.9375 118.688 0.25 116.438 0.25C114.188 0.25 112.375 0.9375 110.938 2.375C109.5 3.8125 108.812 5.625 108.812 7.875C108.812 10.125 109.5 11.9375 110.938 13.375ZM145.25 70C145.25 76.0625 147.062 80.75 150.75 84.125C154.375 87.5625 159.375 89.25 165.688 89.25C171.062 89.25 175.438 88.375 178.812 86.625L177.188 76C173.938 77.375 170.688 78.0625 167.438 78.0625C161.188 78.0625 157.625 74.75 157.625 68.5V38.5H176.562V28H157.5V8.75H145.438V28H134.562V38.5H145.25V70ZM202.875 54.1875C202.875 49.375 204.438 45.5 207.625 42.6875C210.75 39.875 214.688 38.5 219.438 38.5C228.438 38.5 233.875 44.25 233.875 54.1875V88H246.25V51.5625C246.25 44.125 244.062 38.125 239.75 33.5625C235.438 29 229.312 26.75 221.375 26.75C216.312 26.75 211.75 28.0625 208.812 30C205.875 32 204.125 33.75 202.938 35.5625V0H190.5V88H202.875V54.1875ZM276.938 55.3125C276.938 48.875 278.938 44 282.125 41.625C285.312 39.25 288.5 38.25 292.188 38.25C294.562 38.25 297 38.6875 299.5 39.625L300.812 28.25L299.75 27.875C298.438 27.375 295.312 26.75 292.562 26.75C285.375 26.75 280.188 29.875 276.938 36.1875V28H264.5V88H276.938V55.3125ZM325 28H312.625V88H325V28ZM313.312 13.375C314.75 14.8125 316.562 15.5 318.812 15.5C321.062 15.5 322.938 14.8125 324.375 13.375C325.812 11.9375 326.5 10.125 326.5 7.875C326.5 5.625 325.812 3.8125 324.375 2.375C322.938 0.9375 321.062 0.25 318.812 0.25C316.562 0.25 314.75 0.9375 313.312 2.375C311.875 3.8125 311.188 5.625 311.188 7.875C311.188 10.125 311.875 11.9375 313.312 13.375ZM344 0V88H356.375V0H344Z" fill="url(#paint0_linear_1_8)"/>
<path d="M387.75 88V79.8125C392.688 86.125 399.812 89.25 409.125 89.25C417.688 89.25 424.875 86.25 430.625 80.3125C436.375 74.375 439.25 66.875 439.25 57.6875C439.25 48.5625 436.375 41.125 430.688 35.375C424.938 29.625 417.75 26.75 409.125 26.75C399.812 26.75 392.688 29.875 387.75 36.1875V0H375.375V88H387.75ZM387.812 57.6875C387.812 52.125 389.688 47.375 393.438 43.5625C397.188 39.75 401.938 37.875 407.625 37.875C413.312 37.875 417.938 39.75 421.5 43.5625C425.062 47.375 426.875 52.0625 426.875 57.6875C426.875 63.375 425.062 68.1875 421.5 72.125C417.938 76.125 413.312 78.125 407.625 78.125C401.938 78.125 397.25 76.125 393.5 72.125C389.688 68.125 387.812 63.3125 387.812 57.6875ZM466.375 28H454V88H466.375V28ZM454.688 13.375C456.125 14.8125 457.938 15.5 460.188 15.5C462.438 15.5 464.312 14.8125 465.75 13.375C467.188 11.9375 467.875 10.125 467.875 7.875C467.875 5.625 467.188 3.8125 465.75 2.375C464.312 0.9375 462.438 0.25 460.188 0.25C457.938 0.25 456.125 0.9375 454.688 2.375C453.25 3.8125 452.562 5.625 452.562 7.875C452.562 10.125 453.25 11.9375 454.688 13.375ZM489 70C489 76.0625 490.812 80.75 494.5 84.125C498.125 87.5625 503.125 89.25 509.438 89.25C514.812 89.25 519.188 88.375 522.562 86.625L520.938 76C517.688 77.375 514.438 78.0625 511.188 78.0625C504.938 78.0625 501.375 74.75 501.375 68.5V38.5H520.312V28H501.25V8.75H489.188V28H478.312V38.5H489V70ZM529.625 75.375C531.938 79.6875 535.438 83.0625 540 85.5C544.562 88 549.75 89.25 555.562 89.25C562.125 89.25 567.75 87.5625 572.375 84.25C577 80.9375 579.312 76.5625 579.312 71.25C579.312 65.6875 577.375 61.625 573.375 58.6875C569.312 55.75 564.812 54.125 557.75 52.375C553.562 51.375 551.875 50.9375 549.375 50C545.75 48.6875 544.812 47.25 544.5 44.4375C544.5 40.625 548.438 38.0625 554.438 38.0625C560.875 38.0625 566.062 40.8125 569.875 46.25L578.188 39.125C576 35.5625 572.875 32.625 568.688 30.25C564.5 27.9375 559.75 26.75 554.438 26.75C548.125 26.75 542.875 28.375 538.625 31.6875C534.375 35 532.25 39.3125 532.25 44.625C532.25 50.375 534.312 54.625 538.562 57.4375C542.75 60.25 547.25 61.875 554.312 63.4375C559.062 64.5 562.312 65.5625 564.125 66.5625C565.938 67.625 566.812 69.1875 566.812 71.25C566.812 75.25 562.125 77.875 555.562 77.875C548.25 77.875 542.312 74.125 538.812 67.9375L529.625 75.375Z" fill="#9286B8"/>
<defs>
<linearGradient id="paint0_linear_1_8" x1="-0.357143" y1="9.6" x2="282.606" y2="187.915" gradientUnits="userSpaceOnUse">
<stop stop-color="#4776E6"/>
<stop offset="1" stop-color="#8E54E9"/>
</linearGradient>
</defs>
</svg>
